# xmcd
#
# Track frame offsets:
#	150
#	10690
#	24179
#	41553
#	53516
#	65657
#	85427
#	96094
#	105792
#	118336
#	129256
#	140912
#	152050
#	162018
#	174386
#	185862
#	194694
#	206072
#	216074
#
# Disc length: 3039 seconds
#
# Revision: 0
# Processed by: cddbd v1.5.2PL0 Copyright (c) Steve Scherf et al.
# Submitted via: EasyCDDAExtractor 16.0.1.1
#
DISCID=070bdd13
DTITLE=Skeeter Davis - It's Hard To Be A Woman and Easy To Love
DYEAR=1970
DGENRE=Country
TTITLE0=It's Hard To Be A Woman
TTITLE1=Someone Up There Still Loves Me
TTITLE2=Down From Dover
TTITLE3=I'm Only A Woman
TTITLE4=When You Gonna Bring Our Soldiers Home
TTITLE5=Bridge Over Troubled Water
TTITLE6=I'm Your Woman
TTITLE7=How In The World Do You Kill A Memory
TTITLE8=A Girl Who'll Satisfy Her Man
TTITLE9=We Need A Lot More Of Jesus
TTITLE10=Let Me Get Close To You
TTITLE11=Ask Me
TTITLE12=Ladder Of Success
TTITLE13=Another You
TTITLE14=My Happiness
TTITLE15=My Sweet Loving Man
TTITLE16=Didn't I?
TTITLE17=Easy To Love (So Hard To Get)
TTITLE18=The Final Step
EXTD=
EXTT0=
EXTT1=
EXTT2=
EXTT3=
EXTT4=
EXTT5=
EXTT6=
EXTT7=
EXTT8=
EXTT9=
EXTT10=
EXTT11=
EXTT12=
EXTT13=
EXTT14=
EXTT15=
EXTT16=
EXTT17=
EXTT18=
PLAYORDER=
